<?xml version="1.0" encoding="UTF-8"?>
<svg id="Layer_2" data-name="Layer 2" xmlns="http://www.w3.org/2000/svg" viewBox="0 0 300.76 36.32">
  <defs>
    <style>
      .cls-1 {
        fill: #231f20;
      }
    </style>
  </defs>
  <g id="Layer_1-2" data-name="Layer 1">
    <g>
      <path class="cls-1" d="M14.85,11.74c-3.34-2.48-4.48-.91-2.29.95,2.67,2.24,11.4,6.82,13.22,12.12,2.29,6.44-2.29,12.21-9.92,10.5-5.1-1.19-10.16.05-13.6-2.53-5.11-3.82-.67-10.5,4.53-7.78,3.82,2,5.34,6.35,8.83,8.25,3.05,1.67,4.72.67,2.19-1.91-2.96-3.01-11.02-6.73-13.5-12.31-3.05-6.92,1.62-12.21,11.31-9.07,4.25,1.38,6.49,1.1,9.4,2.77,3.91,2.24.72,7.4-3.39,4.87-3.34-2.15-3.67-3.53-6.78-5.87Z"/>
      <path class="cls-1" d="M49.73,18.33l-6.97,16.7c-.38.86-1.24.86-1.62,0l-9.02-19.71c-1.34-2.81-2.29-4.77-5.49-4.77-.81,0-.81-1,0-1h8.54c6.39,0,8.35,2.81,9.92,7.06l1.62,4.34c.14.52.67.52.91-.05l1.81-4.34c.14-.33.29-.76,0-1.48-1.24-2.72-2.1-4.53-5.34-4.53-.81,0-.81-1,0-1h8.54c6.39,0,8.35,2.81,9.92,7.06l1.57,4.34c.19.52.72.52.95-.05l2.29-5.34c1-2.39-.43-5.01-3.24-5.01h-1.77c-.86,0-.86-1,0-1h11.31c.76,0,.76,1,0,1-3.24,0-4.01,2.1-5.2,4.91l-8.3,19.56c-.33.86-1.19.86-1.57,0l-7.73-16.7c-.24-.57-.86-.57-1.15,0Z"/>
      <path class="cls-1" d="M73.82,23.62c-.43-11.5,7.21-14.03,12.36-14.46,8.35-.76,13.03,3.77,14.31,11.21.38,1.96,0,2.53-.76,2.53l-13.6.05c-.48,0-.81.14-.76.72.29,3.44.95,8.59,4.29,9.3,5.77,1.34,9.78-3.91,9.88-7.87,0-.76.95-.72.95,0-.1,4.49-3.53,9.73-10.69,10.69-4.82.67-15.55-.81-15.98-12.17ZM85.7,21.67l2.91-.05c.33,0,.67-.1.57-.91-.62-5.39-.52-10.78-3.24-10.16-2.34.48-1.96,3.77-.91,10.4.1.43.24.72.67.72Z"/>
      <path class="cls-1" d="M103.59,34.5c3.24,0,2.62-2.34,2.62-5.39V6.97c0-3.05.62-5.39-2.62-5.39-.86,0-.86-1,0-1h6.25c6.39,0,7.78,3.34,7.78,7.92v20.61c0,3.05-.57,5.39,2.62,5.39.76,0,.76,1,0,1h-16.65c-.81,0-.81-1,0-1Z"/>
      <path class="cls-1" d="M122.62,34.5c3.24,0,2.62-2.34,2.62-5.39V6.97c0-3.05.62-5.39-2.62-5.39-.86,0-.86-1,0-1h6.25c6.39,0,7.78,3.34,7.78,7.92v20.61c0,3.05-.57,5.39,2.62,5.39.76,0,.76,1,0,1h-16.65c-.81,0-.81-1,0-1Z"/>
      <path class="cls-1" d="M142.32,34.5c3.24,0,2.67-2.34,2.67-5.39V12.41c0-1.53-1.29-1.86-2.39-1.86h-.62c-.81,0-.81-1,0-1h.57c1.53,0,2.29-.81,2.24-1.86-.05-1.81-.05-3.2.29-4.29C146.09.48,149.67.05,153.34,0c4.49-.05,8.68.38,10.07,3.77.76,1.91.14,4.44-2.39,5.01-3.63.86-4.92-1.91-5.11-4.06-.14-1.91-.14-3.53-1.19-3.63-1.1-.1-1.57,1.15-1.15,3.53.19,1.05.43,2.05.81,3.15.48,1.48.86,1.77,1.96,1.77h1c.72,0,.67,1,0,1h-.76c-1.24,0-1.15.76-.86,1.86.38,1.62.67,3.39.67,5.44v11.26c0,3.05,1,5.39,4.25,5.39.81,0,.81,1,0,1h-18.32c-.86,0-.86-1,0-1Z"/>
      <path class="cls-1" d="M164.41,24.77c-1.48-8.54,3.77-14.89,11.36-15.84,7.59-.91,15.41,1.05,17.13,10.97,1.43,8.54-3.72,15.41-11.64,16.27-7.68.81-15.17-1.53-16.84-11.4ZM176.53,23.38c1.29,6.01,1.43,11.88,4.25,11.79,3.58-.14,1.77-4.77.24-12.79-1.57-8.54-1.67-12.69-4.77-12.21-3.1.48-1.43,5.15.29,13.22Z"/>
      <path class="cls-1" d="M198.47,26.82v-10.83c0-3.05.14-5.44-1.76-5.44-.76,0-.76-1,0-1h14.93c.81,0,.81,1,0,1-1.72,0-1.34,2.39-1.34,5.44v10.83c0,3.53.14,6.35,1.91,6.39,1,0,3.34-1.77,3.1-4.39-.1-1.53-.1-3.29-.1-4.48v-8.35c0-3.05.24-5.44-1.29-5.44-.76,0-.76-1,0-1h15.32c.81,0,.81,1,0,1-3.2,0-2.62,2.39-2.62,5.44v13.36c0,1.53,1.72,1.57,1.86.1.14-1.57.29-3.58.1-6.82-.05-.76,1.05-.76,1.05,0,0,2.91-.05,5.01-.29,7.06-.76,6.92-7.63,7.49-10.78,4.82-.86-.72-1.14-1.05-1.77-1.67-.57-.57-1.14-.67-2.05.14-1.48,1.38-3.29,2.77-5.58,2.96-8.4.52-10.69-5.15-10.69-9.11Z"/>
      <path class="cls-1" d="M234.02,34.5c3.24,0,2.62-2.34,2.62-5.39v-13.12c0-3.05.62-5.44-2.62-5.44-.76,0-.76-1,0-1h6.25c2.58,0,4.25.62,5.82,2.24l.38.43c.81.67,1.38.48,2.05-.14,1.48-1.43,3.29-2.67,5.58-2.96,8.45-.91,10.69,4.91,10.69,9.11v10.88c0,3.05-.57,5.39,2.62,5.39.81,0,.81,1,0,1h-15.79c-.67,0-.72-.91,0-1,1.57-.19,1.34-2.34,1.34-5.39v-10.88c0-3.53-.38-6.35-1.91-6.39-1.1.05-3.34,1.81-3.1,4.48.09,1.48.09,3.24.09,4.39v8.4c0,3.05-.24,5.2,1.43,5.39.76.1.67,1,0,1h-15.46c-.81,0-.81-1,0-1Z"/>
      <path class="cls-1" d="M270.51,24.15c-1.43-8.06,3.1-15.32,10.54-14.89,1.62.05,2.53.57,3.72,1.38,1.05.57,1.57-.14,1.57-.72V3.44c0-.95-.14-1.86-3.1-1.86-.76,0-.76-1,0-1h16.94c.76,0,.76,1,0,1-2.77,0-2.43,1.38-2.43,2.34v25.43c0,1.53,1.72,1.57,1.86.1.14-1.57.24-3.58.05-6.82-.05-.76,1.05-.76,1.05,0,.05,2.91,0,5.01-.24,7.06-.67,6.3-6.49,7.35-9.83,5.49-.38-.24-1.29-.95-1.62-1.24-.72-.67-1.29-.62-1.77-.14-1.24,1.24-2.39,1.81-3.77,2.05-6.3,1.19-11.5-3.39-12.98-11.69ZM281.1,22.29c1.05,6.44,1.67,11.98,3.86,11.4,1.34-.38,1.62-1.53-.14-12.41-.86-5.68-1.38-11.12-3.87-10.88-2.48.24-1.05,4.29.14,11.88Z"/>
    </g>
  </g>
</svg>